<svg width="343" height="321" viewBox="0 0 343 321" fill="none" xmlns="http://www.w3.org/2000/svg">
<path d="M300 231.969H43V232.099H300V231.969Z" fill="#EBEBEB"/>
<path d="M274.248 240.175H257.225V240.305H274.248V240.175Z" fill="#EBEBEB"/>
<path d="M213.247 241.562H208.78V241.692H213.247V241.562Z" fill="#EBEBEB"/>
<path d="M256.711 235.442H246.847V235.572H256.711V235.442Z" fill="#EBEBEB"/>
<path d="M92.164 236.299H69.9644V236.429H92.164V236.299Z" fill="#EBEBEB"/>
<path d="M99.9973 236.299H96.7437V236.429H99.9973V236.299Z" fill="#EBEBEB"/>
<path d="M158.727 238.451H110.576V238.581H158.727V238.451Z" fill="#EBEBEB"/>
<path d="M164.818 209.224H65.5699C64.7924 209.222 64.0472 208.915 63.4979 208.369C62.9486 207.823 62.6401 207.083 62.6401 206.312V67.8865C62.6469 67.1195 62.9584 66.3861 63.507 65.8457C64.0555 65.3052 64.7969 65.0013 65.5699 65H164.818C165.597 65 166.343 65.3068 166.894 65.8529C167.444 66.399 167.753 67.1397 167.753 67.912V206.312C167.753 207.084 167.444 207.825 166.894 208.371C166.343 208.917 165.597 209.224 164.818 209.224ZM65.5699 65.102C64.8265 65.1033 64.114 65.3973 63.5888 65.9194C63.0636 66.4414 62.7686 67.1489 62.7686 67.8865V206.312C62.7686 207.049 63.0636 207.757 63.5888 208.279C64.114 208.801 64.8265 209.095 65.5699 209.096H164.818C165.562 209.095 166.275 208.801 166.801 208.279C167.327 207.757 167.623 207.05 167.625 206.312V67.8865C167.623 67.1484 167.327 66.441 166.801 65.9191C166.275 65.3971 165.562 65.1033 164.818 65.102H65.5699Z" fill="#EBEBEB"/>
<path d="M276.001 209.224H176.748C175.97 209.222 175.224 208.915 174.674 208.369C174.124 207.823 173.814 207.084 173.813 206.312V67.8865C173.821 67.119 174.133 66.3857 174.683 65.8453C175.232 65.305 175.974 65.0013 176.748 65H276.001C276.773 65.0027 277.513 65.3071 278.061 65.8475C278.608 66.3878 278.919 67.1204 278.926 67.8865V206.312C278.926 207.082 278.618 207.821 278.07 208.367C277.522 208.913 276.778 209.221 276.001 209.224ZM176.748 65.102C176.004 65.1033 175.291 65.3971 174.765 65.9191C174.239 66.441 173.943 67.1484 173.941 67.8865V206.312C173.943 207.05 174.239 207.757 174.765 208.279C175.291 208.801 176.004 209.095 176.748 209.096H276.001C276.745 209.095 277.458 208.801 277.984 208.279C278.51 207.757 278.806 207.05 278.808 206.312V67.8865C278.806 67.1484 278.51 66.441 277.984 65.9191C277.458 65.3971 276.745 65.1033 276.001 65.102H176.748Z" fill="#EBEBEB"/>
<path d="M259.147 78.9844H142.865V145.17H259.147V78.9844Z" fill="#E6E6E6"/>
<path d="M262.257 78.9844H144.32V145.17H262.257V78.9844Z" fill="#F0F0F0"/>
<path d="M259.147 145.17H142.865V150.902H259.147V145.17Z" fill="#E6E6E6"/>
<path d="M267.433 145.17H149.496V150.902H267.433V145.17Z" fill="#F0F0F0"/>
<path d="M257.904 140.85V83.2979H148.668V140.85H257.904Z" fill="#FAFAFA"/>
<path d="M156.697 140.85L182.232 83.2979H194.291L168.75 140.85H156.697Z" fill="#F3F6F5"/>
<path d="M150.683 136.556C150.601 136.555 150.522 136.521 150.465 136.463C150.407 136.405 150.375 136.326 150.375 136.245V86.1083C150.384 86.0333 150.421 85.9643 150.479 85.9144C150.536 85.8645 150.609 85.8369 150.686 85.8369C150.762 85.8369 150.836 85.8645 150.893 85.9144C150.95 85.9643 150.987 86.0333 150.997 86.1083V136.245C150.997 136.286 150.989 136.326 150.973 136.364C150.957 136.402 150.934 136.436 150.905 136.465C150.876 136.494 150.841 136.517 150.803 136.532C150.765 136.548 150.724 136.556 150.683 136.556Z" fill="#F0F0F0"/>
<path d="M171.34 140.85L196.881 83.2979H201.579L176.038 140.85H171.34Z" fill="#F3F6F5"/>
<path d="M257.904 140.85V83.2979H257.353V140.85H257.904Z" fill="#E6E6E6"/>
<path opacity="0.6" d="M263.285 89.8102H147.003L146.602 84.9756H262.884L263.285 89.8102Z" fill="#EBEBEB"/>
<path opacity="0.6" d="M263.285 97.7309H147.003L146.602 92.9014H262.884L263.285 97.7309Z" fill="#EBEBEB"/>
<path opacity="0.6" d="M263.285 105.656H147.003L146.602 100.826H262.884L263.285 105.656Z" fill="#EBEBEB"/>
<path opacity="0.6" d="M263.285 113.581H147.003L146.602 108.746H262.884L263.285 113.581Z" fill="#EBEBEB"/>
<path opacity="0.6" d="M263.285 121.507H147.003L146.602 116.672H262.884L263.285 121.507Z" fill="#EBEBEB"/>
<path opacity="0.6" d="M263.285 129.426H147.003L146.602 124.597H262.884L263.285 129.426Z" fill="#EBEBEB"/>
<path d="M116.055 97.7969H76.1787V150.896H116.055V97.7969Z" fill="#E6E6E6"/>
<path d="M118.836 97.7969H76.7803V150.896H118.836V97.7969Z" fill="#F0F0F0"/>
<path d="M115.309 147.398V101.29H80.3008V147.398H115.309Z" fill="#F3F6F5"/>
<path d="M97.5663 136.541L91.1413 130.166C89.5892 128.622 88.7175 126.53 88.7175 124.35C88.7175 122.169 89.5892 120.077 91.1413 118.533L97.5663 112.153C97.6305 112.092 97.7161 112.058 97.8053 112.058C97.8944 112.058 97.9801 112.092 98.0443 112.153L104.474 118.549C106.027 120.092 106.898 122.184 106.898 124.365C106.898 126.546 106.027 128.637 104.474 130.181L98.0443 136.556C98.0122 136.587 97.9742 136.611 97.9326 136.627C97.891 136.642 97.8466 136.65 97.802 136.648C97.7575 136.647 97.7137 136.637 97.6732 136.618C97.6327 136.6 97.5964 136.573 97.5663 136.541ZM97.8079 112.867L91.6399 118.987C90.2152 120.406 89.4152 122.327 89.4152 124.329C89.4152 126.332 90.2152 128.253 91.6399 129.671L97.8079 135.791L103.976 129.671C105.403 128.254 106.205 126.333 106.205 124.329C106.205 122.326 105.403 120.404 103.976 118.987L97.8079 112.867Z" fill="#F0F0F0"/>
<path d="M157.797 177.334C157.535 177.334 157.283 177.334 157 177.359C151.346 177.808 146.813 183.133 146.453 189.691C146.372 191.146 146.498 192.605 146.828 194.026C148.072 199.682 148.67 205.459 148.612 211.248V228.164C148.612 229.388 149.465 230.383 150.519 230.383H188.143V177.344L157.797 177.334Z" fill="#F0F0F0"/>
<path d="M199.502 190.558C199.502 182.949 193.977 176.839 187.336 177.365C181.682 177.813 177.143 183.138 176.789 189.696C176.703 191.149 176.826 192.607 177.154 194.026C178.397 199.682 178.996 205.459 178.937 211.248V228.164C178.937 229.388 179.791 230.383 180.844 230.383H195.421C196.449 230.383 197.328 229.388 197.328 228.164V210.233C197.286 204.803 197.878 199.387 199.091 194.092C199.365 192.934 199.503 191.748 199.502 190.558Z" fill="#FAFAFA"/>
<path d="M172.466 200.375H132.76V230.357H172.466V200.375Z" fill="#F3F6F5"/>
<path d="M107.831 164.447H151.454C153.925 164.447 156.296 165.421 158.043 167.155C159.791 168.889 160.773 171.241 160.773 173.693V205.445H98.512V173.693C98.512 171.241 99.4938 168.889 101.241 167.155C102.989 165.421 105.359 164.447 107.831 164.447Z" fill="#E6E6E6"/>
<path d="M114.61 164.447H153.895C155.101 164.447 156.296 164.683 157.41 165.141C158.525 165.599 159.537 166.27 160.39 167.117C161.243 167.963 161.92 168.967 162.381 170.073C162.843 171.179 163.08 172.364 163.08 173.561V205.445H105.42V173.561C105.42 172.363 105.658 171.178 106.12 170.072C106.582 168.966 107.259 167.961 108.112 167.115C108.965 166.268 109.979 165.597 111.094 165.14C112.209 164.682 113.404 164.447 114.61 164.447Z" fill="#F3F6F5"/>
<path d="M135.319 199.294H172.43C172.96 199.294 173.469 199.503 173.844 199.875C174.219 200.247 174.43 200.752 174.43 201.278V204.47C174.43 204.996 174.219 205.501 173.844 205.873C173.469 206.245 172.96 206.454 172.43 206.454H135.319C135.161 206.454 135.01 206.392 134.898 206.281C134.786 206.17 134.723 206.019 134.723 205.863V199.886C134.723 199.729 134.786 199.578 134.898 199.467C135.01 199.356 135.161 199.294 135.319 199.294Z" fill="#EBEBEB"/>
<path d="M93.8548 230.357H188.703V230.48C188.703 230.875 188.545 231.254 188.264 231.534C187.982 231.813 187.6 231.97 187.202 231.97H95.3505C94.9524 231.97 94.5707 231.813 94.2892 231.534C94.0077 231.254 93.8496 230.875 93.8496 230.48V230.357H93.8548Z" fill="#E6E6E6"/>
<path d="M94.4256 177.334C94.1634 177.334 93.9116 177.334 93.6289 177.359C87.9749 177.808 83.4363 183.132 83.0816 189.691C83.0005 191.135 83.1233 192.584 83.4465 193.995C84.6903 199.651 85.2885 205.428 85.2301 211.217V228.133C85.2301 229.357 86.0834 230.352 87.1371 230.352H133.299V177.313L94.4256 177.334Z" fill="#F0F0F0"/>
<path d="M144.669 190.558C144.669 182.949 139.144 176.839 132.503 177.365C126.849 177.813 122.315 183.138 121.955 189.696C121.874 191.141 121.997 192.589 122.32 194C123.564 199.656 124.162 205.433 124.104 211.222V228.139C124.104 229.363 124.957 230.357 126.011 230.357H140.588C141.616 230.357 142.5 229.363 142.5 228.139V210.233C142.456 204.803 143.046 199.387 144.258 194.092C144.532 192.934 144.67 191.748 144.669 190.558Z" fill="#FAFAFA"/>
<path d="M249.33 181.827C249.776 181.829 250.212 181.7 250.584 181.456C250.957 181.213 251.248 180.866 251.423 180.458C251.597 180.051 251.647 179.602 251.565 179.167C251.484 178.732 251.275 178.33 250.964 178.013C249.936 176.962 248.25 176.105 245.567 176.105C242.884 176.105 241.219 176.962 240.175 178.013C239.865 178.33 239.656 178.731 239.574 179.166C239.493 179.6 239.542 180.049 239.716 180.456C239.889 180.863 240.18 181.21 240.552 181.454C240.923 181.698 241.359 181.828 241.805 181.827H249.33Z" fill="#F3F6F5"/>
<path d="M256.881 180.991C257.165 180.988 257.442 180.902 257.678 180.744C257.914 180.587 258.098 180.364 258.207 180.103C258.317 179.843 258.347 179.556 258.294 179.279C258.241 179.002 258.107 178.746 257.909 178.543C257.24 177.865 256.166 177.319 254.444 177.319C252.722 177.319 251.648 177.865 250.98 178.543C250.782 178.746 250.648 179.002 250.595 179.279C250.542 179.556 250.572 179.843 250.681 180.103C250.791 180.364 250.975 180.587 251.211 180.744C251.446 180.902 251.724 180.988 252.008 180.991H256.881Z" fill="#F3F6F5"/>
<path d="M237.806 180.343C237.806 180.343 238.099 183.317 249.36 183.317C260.622 183.317 260.92 180.343 260.92 180.343H237.806Z" fill="#F0F0F0"/>
<path d="M225.861 175.34C225.764 175.343 225.668 175.353 225.573 175.371V174.351C225.574 174.245 225.553 174.139 225.513 174.041C225.472 173.943 225.413 173.853 225.337 173.778C225.262 173.702 225.172 173.643 225.073 173.602C224.974 173.561 224.868 173.54 224.761 173.54H220.397C220.181 173.541 219.975 173.627 219.823 173.779C219.67 173.931 219.585 174.137 219.585 174.351V183.316H225.573V181.868C225.668 181.883 225.764 181.894 225.861 181.899C226.497 181.897 227.107 181.646 227.557 181.2C228.007 180.753 228.26 180.148 228.261 179.517V177.707C228.256 177.078 228.001 176.477 227.551 176.034C227.102 175.591 226.494 175.342 225.861 175.34ZM227.233 179.517C227.232 179.878 227.087 180.223 226.83 180.478C226.573 180.733 226.224 180.877 225.861 180.879C225.764 180.879 225.668 180.869 225.573 180.848V176.391C225.668 176.37 225.764 176.36 225.861 176.36C226.224 176.362 226.573 176.505 226.83 176.761C227.087 177.016 227.232 177.361 227.233 177.722V179.517Z" fill="#E6E6E6"/>
<path d="M230.785 183.316H208.467V231.969H230.785V183.316Z" fill="#E6E6E6"/>
<path d="M230.78 231.969H270.039V183.316H230.78V231.969Z" fill="#F3F6F5"/>
<path d="M267.982 231.969V185.356H232.835V231.969H267.982Z" fill="#E6E6E6"/>
<path d="M241.712 231.969V185.356H232.84V231.969H241.712Z" fill="#E0E0E0"/>
<path d="M269.098 209.683V207.643H232.841V209.683H269.098Z" fill="#F3F6F5"/>
<path d="M244.658 207.643H236.948L239.235 190.885H244.658V207.643Z" fill="#E6E6E6"/>
<path d="M255.966 207.642H241.363L238.644 188.028H253.247L255.966 207.642Z" fill="#F0F0F0"/>
<path d="M257.918 207.642H242.719L240 188.028H255.199L257.918 207.642Z" fill="#F3F6F5"/>
<path d="M244.062 206.098L241.774 189.574H253.853L256.146 206.098H244.062Z" fill="#F3F6F5"/>
<path d="M247.058 200.778L246.298 195.306C246.269 195.089 246.287 194.869 246.352 194.659C246.416 194.45 246.526 194.257 246.672 194.093C246.818 193.929 246.998 193.798 247.199 193.709C247.401 193.62 247.619 193.575 247.84 193.577H249.32C249.694 193.574 250.057 193.705 250.34 193.947C250.624 194.189 250.809 194.525 250.862 194.893L251.617 200.36C251.647 200.577 251.629 200.798 251.565 201.008C251.501 201.218 251.392 201.412 251.245 201.576C251.099 201.741 250.919 201.872 250.717 201.961C250.515 202.051 250.296 202.096 250.075 202.094H248.6C248.226 202.098 247.863 201.966 247.58 201.724C247.296 201.482 247.111 201.146 247.058 200.778Z" fill="#F3F6F5"/>
<path d="M171.5 255C226.54 255 271.16 252.415 271.16 249.227C271.16 246.039 226.54 243.454 171.5 243.454C116.46 243.454 71.8406 246.039 71.8406 249.227C71.8406 252.415 116.46 255 171.5 255Z" fill="#F3F6F5"/>
<path d="M126.947 139.251C129.084 126.204 120.155 113.912 107.005 111.796C93.8544 109.68 81.462 118.541 79.3255 131.588C77.189 144.635 86.1176 156.927 99.268 159.043C112.418 161.159 124.811 152.298 126.947 139.251Z" fill="#2352A1"/>
<path opacity="0.7" d="M126.947 139.251C129.084 126.204 120.155 113.912 107.005 111.796C93.8544 109.68 81.462 118.541 79.3255 131.588C77.189 144.635 86.1176 156.927 99.268 159.043C112.418 161.159 124.811 152.298 126.947 139.251Z" fill="#FAFAFA"/>
<path d="M90.0874 135.015C90.0874 132.006 90.634 129.9 91.7271 128.696C92.8202 127.493 94.4838 126.891 96.718 126.891C97.6169 126.864 98.5134 126.997 99.3651 127.284C99.9923 127.507 100.568 127.854 101.056 128.304C101.465 128.691 101.811 129.139 102.084 129.63C102.352 130.145 102.554 130.692 102.686 131.257C102.987 132.466 103.137 133.708 103.133 134.954C103.133 137.823 102.643 139.926 101.663 141.262C100.683 142.599 98.995 143.265 96.5998 143.262C95.4779 143.309 94.3608 143.09 93.341 142.624C92.4987 142.197 91.7883 141.552 91.2851 140.758C90.8411 140.019 90.5363 139.207 90.3856 138.361C90.1722 137.258 90.0723 136.137 90.0874 135.015ZM94.4873 135.015C94.4873 137.031 94.6586 138.408 95.0013 139.146C95.1167 139.463 95.3255 139.738 95.6005 139.935C95.8755 140.132 96.204 140.243 96.5433 140.253C96.981 140.256 97.4022 140.087 97.7152 139.783C98.0958 139.368 98.349 138.853 98.4451 138.299C98.6294 137.254 98.7069 136.193 98.6764 135.132C98.6764 133.024 98.505 131.61 98.1624 130.889C98.035 130.568 97.8127 130.292 97.5247 130.099C97.2367 129.905 96.8964 129.802 96.5484 129.803C96.1985 129.797 95.8557 129.902 95.5694 130.102C95.2831 130.302 95.068 130.586 94.955 130.915C94.6432 131.659 94.4873 133.031 94.4873 135.03V135.015Z" fill="#FAFAFA"/>
<path d="M115.017 126.892V143.028H110.529V132.471C109.87 132.978 109.164 133.423 108.422 133.802C107.594 134.196 106.735 134.52 105.852 134.771V131.165C107.121 130.802 108.312 130.213 109.368 129.426C110.205 128.748 110.876 127.89 111.331 126.917L115.017 126.892Z" fill="#FAFAFA"/>
<path d="M174.843 140.911C177.904 128.046 169.873 115.156 156.908 112.12C143.942 109.083 130.95 117.051 127.889 129.915C124.829 142.78 132.859 155.67 145.825 158.707C158.791 161.743 171.783 153.776 174.843 140.911Z" fill="#2352A1"/>
<path opacity="0.7" d="M174.843 140.911C177.904 128.046 169.873 115.156 156.908 112.12C143.942 109.083 130.95 117.051 127.889 129.915C124.829 142.78 132.859 155.67 145.825 158.707C158.791 161.743 171.783 153.776 174.843 140.911Z" fill="#FAFAFA"/>
<path d="M137.335 135.015C137.335 132.006 137.881 129.9 138.974 128.696C140.067 127.493 141.731 126.891 143.965 126.891C144.864 126.864 145.761 126.997 146.612 127.284C147.239 127.506 147.812 127.853 148.298 128.304C148.708 128.69 149.055 129.138 149.326 129.63C149.594 130.145 149.796 130.692 149.928 131.257C150.229 132.466 150.379 133.708 150.375 134.954C150.375 137.823 149.885 139.926 148.905 141.262C147.925 142.599 146.237 143.265 143.842 143.262C142.72 143.31 141.603 143.091 140.583 142.624C139.741 142.197 139.03 141.552 138.527 140.758C138.083 140.019 137.778 139.207 137.628 138.361C137.416 137.258 137.318 136.137 137.335 135.015ZM141.734 135.015C141.734 137.031 141.906 138.408 142.248 139.146C142.364 139.463 142.573 139.738 142.848 139.935C143.123 140.132 143.451 140.243 143.79 140.253C144.006 140.255 144.221 140.214 144.421 140.134C144.621 140.053 144.803 139.934 144.957 139.783C145.342 139.37 145.596 138.854 145.687 138.299C145.876 137.255 145.956 136.193 145.924 135.132C145.924 133.024 145.744 131.61 145.384 130.889C145.256 130.567 145.033 130.291 144.744 130.097C144.455 129.903 144.114 129.801 143.765 129.803C143.416 129.799 143.074 129.904 142.789 130.103C142.504 130.303 142.289 130.587 142.176 130.915C141.894 131.665 141.734 133.031 141.734 135.03V135.015Z" fill="#FAFAFA"/>
<path d="M165.193 143.027H151.881C152.04 141.708 152.518 140.447 153.274 139.35C154.045 138.205 155.494 136.845 157.622 135.27C158.546 134.654 159.384 133.92 160.115 133.088C160.444 132.686 160.635 132.191 160.66 131.675C160.666 131.444 160.624 131.215 160.535 131.001C160.447 130.788 160.314 130.595 160.146 130.436C159.769 130.1 159.28 129.915 158.774 129.915C158.267 129.915 157.778 130.1 157.401 130.436C156.969 130.969 156.716 131.624 156.676 132.307L152.236 131.95C152.336 130.925 152.664 129.933 153.197 129.049C153.68 128.336 154.362 127.78 155.16 127.447C156.281 127.031 157.475 126.842 158.671 126.891C159.907 126.835 161.143 127.008 162.315 127.401C163.152 127.722 163.87 128.29 164.371 129.028C164.867 129.753 165.127 130.611 165.116 131.486C165.111 132.471 164.815 133.432 164.263 134.25C163.423 135.396 162.378 136.378 161.179 137.147C160.285 137.759 159.689 138.188 159.39 138.432C159.092 138.677 158.738 138.998 158.326 139.396H165.255L165.193 143.027Z" fill="#FAFAFA"/>
<path d="M199.153 145.402C212.458 144.738 222.702 133.498 222.032 120.296C221.363 107.095 210.034 96.9312 196.729 97.5953C183.423 98.2595 173.18 109.5 173.849 122.701C174.519 135.903 185.847 146.066 199.153 145.402Z" fill="#2352A1"/>
<path opacity="0.7" d="M199.153 145.402C212.458 144.738 222.702 133.498 222.032 120.296C221.363 107.095 210.034 96.9312 196.729 97.5953C183.423 98.2595 173.18 109.5 173.849 122.701C174.519 135.903 185.847 146.066 199.153 145.402Z" fill="#FAFAFA"/>
<path d="M185.62 126.106C184.465 123.322 184.162 121.168 184.71 119.645C185.258 118.121 186.566 116.931 188.632 116.075C189.453 115.71 190.334 115.496 191.233 115.442C191.899 115.41 192.564 115.516 193.186 115.753C193.713 115.956 194.205 116.238 194.646 116.59C195.093 116.964 195.492 117.393 195.833 117.865C196.575 118.869 197.189 119.96 197.663 121.113C198.77 123.769 199.124 125.899 198.727 127.503C198.329 129.108 197.025 130.373 194.815 131.298C193.794 131.761 192.678 131.981 191.557 131.94C190.62 131.854 189.722 131.523 188.956 130.982C188.265 130.467 187.673 129.833 187.208 129.11C186.577 128.165 186.045 127.158 185.62 126.106ZM189.696 124.454C190.467 126.32 191.166 127.514 191.778 128.07C192.009 128.321 192.311 128.497 192.645 128.574C192.979 128.652 193.329 128.627 193.649 128.503C193.85 128.424 194.034 128.305 194.19 128.154C194.345 128.004 194.468 127.824 194.553 127.626C194.748 127.098 194.784 126.526 194.656 125.979C194.43 124.941 194.096 123.929 193.659 122.959C192.847 121.015 192.137 119.775 191.531 119.242C191.289 118.993 190.977 118.822 190.635 118.753C190.294 118.684 189.94 118.719 189.619 118.854C189.297 118.983 189.025 119.209 188.841 119.5C188.656 119.791 188.569 120.133 188.591 120.476C188.563 121.282 188.932 122.608 189.696 124.454Z" fill="#FAFAFA"/>
<path d="M202.093 115.83L197.93 116.722C197.723 115.489 197.968 114.223 198.619 113.152C199.266 112.132 200.428 111.282 202.104 110.602C204.031 109.812 205.573 109.582 206.73 109.96C207.271 110.112 207.77 110.386 208.188 110.761C208.605 111.136 208.929 111.602 209.135 112.122C209.399 112.731 209.466 113.407 209.325 114.055C209.148 114.791 208.796 115.475 208.297 116.049C208.796 115.96 209.305 115.944 209.809 116.003C210.408 116.095 210.972 116.343 211.443 116.722C211.953 117.145 212.345 117.691 212.579 118.308C212.935 119.171 213.053 120.113 212.923 121.037C212.8 122.003 212.384 122.91 211.731 123.637C210.873 124.532 209.817 125.216 208.647 125.637C207.585 126.119 206.441 126.4 205.275 126.463C204.411 126.477 203.557 126.276 202.792 125.876C201.978 125.421 201.264 124.807 200.695 124.071L204.571 121.858C204.904 122.457 205.411 122.944 206.026 123.255C206.51 123.432 207.046 123.412 207.516 123.199C207.778 123.098 208.014 122.942 208.209 122.741C208.403 122.54 208.551 122.3 208.642 122.036C208.841 121.437 208.8 120.785 208.529 120.215C208.325 119.626 207.9 119.138 207.341 118.854C207.08 118.737 206.796 118.676 206.509 118.676C206.222 118.676 205.938 118.737 205.676 118.854C205.233 119.061 204.82 119.325 204.448 119.639L203.45 116.646C203.639 116.601 203.824 116.545 204.006 116.477C204.508 116.284 204.914 115.903 205.136 115.416C205.245 115.195 205.304 114.953 205.31 114.706C205.317 114.46 205.27 114.215 205.172 113.989C205.102 113.788 204.991 113.605 204.846 113.449C204.701 113.294 204.525 113.17 204.329 113.086C204.125 113.008 203.906 112.972 203.687 112.981C203.467 112.989 203.252 113.043 203.055 113.137C202.835 113.216 202.634 113.339 202.463 113.496C202.292 113.654 202.154 113.844 202.057 114.055C201.879 114.635 201.891 115.257 202.093 115.83Z" fill="#FAFAFA"/>
<path d="M271.326 140.916C274.386 128.051 266.356 115.161 253.39 112.124C240.424 109.088 227.432 117.056 224.372 129.92C221.311 142.785 229.342 155.675 242.308 158.712C255.274 161.748 268.265 153.781 271.326 140.916Z" fill="#2352A1"/>
<path opacity="0.7" d="M271.326 140.916C274.386 128.051 266.356 115.161 253.39 112.124C240.424 109.088 227.432 117.056 224.372 129.92C221.311 142.785 229.342 155.675 242.308 158.712C255.274 161.748 268.265 153.781 271.326 140.916Z" fill="#FAFAFA"/>
<path d="M233.355 135.015C233.355 132.006 233.902 129.9 234.995 128.696C236.088 127.493 237.751 126.891 239.986 126.891C240.885 126.864 241.781 126.997 242.633 127.284C243.259 127.506 243.833 127.853 244.319 128.304C244.728 128.69 245.075 129.138 245.347 129.63C245.614 130.145 245.816 130.692 245.948 131.257C246.25 132.466 246.4 133.708 246.395 134.954C246.395 137.823 245.905 139.926 244.925 141.262C243.945 142.599 242.257 143.268 239.862 143.272C238.74 143.32 237.623 143.101 236.604 142.634C235.761 142.207 235.051 141.562 234.548 140.768C234.104 140.03 233.799 139.217 233.648 138.371C233.436 137.265 233.338 136.141 233.355 135.015ZM237.755 135.015C237.755 137.031 237.935 138.408 238.295 139.146C238.41 139.463 238.619 139.738 238.894 139.935C239.169 140.132 239.497 140.243 239.837 140.253C240.053 140.255 240.267 140.214 240.467 140.134C240.667 140.053 240.85 139.934 241.003 139.783C241.388 139.37 241.642 138.854 241.733 138.299C241.923 137.255 242.002 136.193 241.97 135.132C241.97 133.024 241.79 131.61 241.43 130.889C241.302 130.567 241.079 130.291 240.79 130.097C240.501 129.903 240.16 129.801 239.811 129.803C239.462 129.799 239.12 129.904 238.835 130.103C238.55 130.303 238.335 130.587 238.223 130.915C237.914 131.659 237.758 133.031 237.755 135.03V135.015Z" fill="#FAFAFA"/>
<path d="M255.853 140.044H247.772V136.423L255.853 126.892H259.718V136.627H261.722V140.044H259.718V143.028H255.853V140.044ZM255.853 136.627V131.645L251.581 136.627H255.853Z" fill="#FAFAFA"/>
<path d="M247.855 161.566C247.173 161.566 246.52 161.297 246.038 160.819C245.556 160.341 245.285 159.692 245.285 159.016C245.285 158.339 245.556 157.691 246.038 157.213C246.52 156.734 247.173 156.466 247.855 156.466C252.118 156.467 256.285 155.214 259.83 152.864C263.375 150.515 266.138 147.176 267.77 143.269C269.402 139.362 269.829 135.062 268.998 130.914C268.167 126.765 266.115 122.954 263.101 119.963C260.087 116.972 256.247 114.935 252.066 114.11C247.886 113.284 243.552 113.707 239.614 115.326C235.675 116.944 232.309 119.685 229.94 123.201C227.572 126.718 226.308 130.853 226.308 135.082C226.308 142.106 223.496 148.842 218.49 153.809C213.484 158.775 206.695 161.566 199.616 161.566C192.537 161.566 185.748 158.775 180.742 153.809C175.736 148.842 172.924 142.106 172.924 135.082C172.924 129.411 170.653 123.972 166.611 119.962C162.57 115.951 157.088 113.698 151.372 113.698C145.656 113.698 140.174 115.951 136.132 119.962C132.09 123.972 129.82 129.411 129.82 135.082C129.82 140.321 128.254 145.441 125.321 149.797C122.387 154.152 118.218 157.547 113.34 159.551C108.462 161.555 103.095 162.079 97.9167 161.056C92.7387 160.033 87.9826 157.51 84.2501 153.805C80.5175 150.1 77.9762 145.381 76.9474 140.243C75.9187 135.105 76.4487 129.779 78.4706 124.94C80.4924 120.101 83.9152 115.966 88.306 113.057C92.6968 110.148 97.8585 108.597 103.138 108.599C103.82 108.599 104.473 108.867 104.955 109.345C105.437 109.824 105.708 110.472 105.708 111.149C105.708 111.825 105.437 112.473 104.955 112.952C104.473 113.43 103.82 113.698 103.138 113.698C98.8755 113.698 94.7087 114.953 91.1644 117.302C87.6202 119.652 84.8579 122.992 83.2266 126.899C81.5954 130.806 81.1686 135.106 82.0002 139.254C82.8318 143.402 84.8844 147.212 87.8985 150.203C90.9126 153.193 94.7528 155.23 98.9335 156.055C103.114 156.88 107.448 156.457 111.386 154.838C115.324 153.22 118.69 150.479 121.058 146.962C123.426 143.446 124.69 139.311 124.69 135.082C124.69 128.058 127.502 121.322 132.508 116.355C137.514 111.389 144.303 108.599 151.382 108.599C158.461 108.599 165.251 111.389 170.256 116.355C175.262 121.322 178.074 128.058 178.074 135.082C178.074 137.89 178.632 140.671 179.715 143.265C180.798 145.86 182.385 148.217 184.387 150.203C186.388 152.188 188.764 153.763 191.379 154.838C193.993 155.913 196.796 156.466 199.626 156.466C202.456 156.466 205.259 155.913 207.874 154.838C210.489 153.763 212.864 152.188 214.866 150.203C216.867 148.217 218.455 145.86 219.538 143.265C220.621 140.671 221.178 137.89 221.178 135.082C221.178 129.844 222.744 124.723 225.677 120.368C228.61 116.013 232.779 112.618 237.657 110.614C242.534 108.61 247.902 108.086 253.079 109.108C258.257 110.13 263.013 112.653 266.746 116.357C270.479 120.062 273.021 124.781 274.05 129.919C275.079 135.056 274.55 140.381 272.529 145.22C270.508 150.06 267.086 154.195 262.696 157.105C258.306 160.014 253.144 161.567 247.865 161.566H247.855Z" fill="#2352A1"/>
<path d="M221.754 152.855L221.358 152.534C222.529 151.097 223.553 149.55 224.417 147.913L224.874 148.153C223.991 149.817 222.946 151.392 221.754 152.855Z" fill="#2352A1"/>
<path d="M210.138 161.351L209.948 160.877C213.18 159.599 216.144 157.732 218.686 155.374L219.035 155.746C216.447 158.148 213.43 160.049 210.138 161.351Z" fill="#2352A1"/>
<path d="M140.752 245.402H144.525L144.9 236.722H141.128L140.752 245.402Z" fill="#FFC3BD"/>
<path opacity="0.2" d="M144.901 236.727L144.711 241.199H140.933L141.123 236.727H144.901Z" fill="#131314"/>
<path d="M113.074 242.459L116.764 243.25L120.47 235.172L116.78 234.376L113.074 242.459Z" fill="#FFC3BD"/>
<path opacity="0.2" d="M116.775 234.381L120.47 235.171L118.558 239.338L114.868 238.547L116.775 234.381Z" fill="#131314"/>
<path d="M132.678 123.265C131.383 125.524 130.077 127.855 128.828 130.175C127.579 132.496 126.356 134.831 125.318 137.157C125.045 137.743 124.804 138.32 124.577 138.896C124.577 138.896 124.577 138.932 124.577 138.973C124.559 139.12 124.559 139.269 124.577 139.416C124.671 139.899 124.825 140.368 125.035 140.814C125.273 141.349 125.541 141.872 125.837 142.379C127.174 144.578 128.659 146.684 130.283 148.683L128.34 150.723C126.039 149.041 123.965 147.071 122.172 144.863C121.129 143.614 120.323 142.189 119.792 140.655C119.634 140.159 119.537 139.645 119.504 139.126C119.476 138.817 119.476 138.506 119.504 138.197C119.522 138.026 119.549 137.856 119.587 137.687C119.587 137.606 119.628 137.519 119.648 137.432L119.715 137.213C119.941 136.53 120.162 135.836 120.414 135.173C121.4 132.575 122.526 130.032 123.786 127.554C125.03 125.096 126.33 122.719 127.78 120.343L132.678 123.265Z" fill="#FFC3BD"/>
<path d="M129.552 148.03L132.205 148.897L129.974 152.62C129.974 152.62 128.031 151.748 127.64 149.973L129.552 148.03Z" fill="#FFC3BD"/>
<path d="M135.818 150.336L133.238 153.202L129.974 152.62L132.205 148.897L135.818 150.336Z" fill="#FFC3BD"/>
<path d="M145.353 102.922C145.415 103.218 145.621 103.433 145.816 103.387C146.012 103.341 146.12 103.075 146.058 102.779C145.996 102.483 145.791 102.269 145.595 102.315C145.4 102.361 145.286 102.626 145.353 102.922Z" fill="#2352A1"/>
<path d="M145.595 103.432C146.136 104.265 146.789 105.02 147.538 105.676C147.363 105.862 147.15 106.008 146.913 106.103C146.676 106.198 146.421 106.241 146.165 106.227L145.595 103.432Z" fill="#ED847E"/>
<path d="M143.924 101.499C143.878 101.498 143.834 101.48 143.801 101.448C143.768 101.415 143.75 101.37 143.75 101.323C143.75 101.277 143.768 101.232 143.801 101.198C143.991 100.984 144.231 100.819 144.499 100.717C144.768 100.615 145.057 100.579 145.343 100.611C145.39 100.619 145.432 100.645 145.46 100.683C145.488 100.721 145.499 100.769 145.492 100.816C145.483 100.862 145.457 100.903 145.419 100.93C145.381 100.958 145.333 100.97 145.286 100.964C145.062 100.942 144.836 100.974 144.627 101.057C144.418 101.139 144.232 101.27 144.084 101.438C144.065 101.461 144.04 101.479 144.012 101.49C143.984 101.501 143.954 101.504 143.924 101.499Z" fill="#2352A1"/>
<path d="M136.851 107.083C137.365 109.827 137.931 114.85 135.998 116.676C135.998 116.676 136.754 119.455 141.888 119.455C147.542 119.455 144.587 116.676 144.587 116.676C141.503 115.947 141.585 113.682 142.12 111.55L136.851 107.083Z" fill="#FFC3BD"/>
<path d="M135.227 117.295C134.816 116.784 134.369 116.146 135.294 115.952C136.322 115.743 141.909 115.524 143.837 115.922C145.764 116.32 145.214 117.407 145.214 117.407L135.227 117.295Z" fill="#F3F6F5"/>
<path d="M118.203 243.76C118.356 243.813 118.517 243.836 118.679 243.828C118.84 243.819 118.998 243.778 119.144 243.709C119.2 243.657 119.239 243.59 119.255 243.516C119.27 243.442 119.262 243.365 119.231 243.295C119.215 243.237 119.185 243.184 119.145 243.139C119.105 243.094 119.056 243.058 119 243.035C118.486 242.79 117.319 243.265 117.268 243.285C117.252 243.292 117.238 243.304 117.228 243.318C117.218 243.332 117.213 243.349 117.211 243.367C117.212 243.384 117.217 243.4 117.226 243.414C117.235 243.429 117.248 243.44 117.263 243.448C117.564 243.585 117.88 243.689 118.203 243.76ZM118.815 243.157L118.923 243.193C118.955 243.207 118.984 243.228 119.007 243.255C119.03 243.281 119.047 243.312 119.057 243.346C119.108 243.504 119.057 243.555 119.026 243.571C118.825 243.744 118.07 243.571 117.54 243.372C117.944 243.209 118.38 243.136 118.815 243.157Z" fill="#2352A1"/>
<path d="M117.283 243.455H117.324C117.756 243.332 118.666 242.684 118.676 242.26C118.678 242.194 118.656 242.129 118.615 242.077C118.574 242.025 118.515 241.989 118.45 241.975C118.386 241.952 118.317 241.942 118.249 241.948C118.181 241.953 118.114 241.973 118.054 242.005C117.54 242.26 117.232 243.297 117.217 243.342C117.209 243.356 117.205 243.371 117.205 243.386C117.205 243.401 117.209 243.416 117.217 243.429C117.235 243.445 117.259 243.454 117.283 243.455ZM118.352 242.128H118.388C118.502 242.164 118.502 242.22 118.502 242.24C118.502 242.49 117.89 242.995 117.474 243.205C117.592 242.792 117.832 242.424 118.162 242.148C118.222 242.123 118.288 242.115 118.352 242.128Z" fill="#2352A1"/>
<path d="M146.042 245.591C146.53 245.591 146.998 245.525 147.152 245.31C147.192 245.254 147.214 245.186 147.214 245.116C147.214 245.047 147.192 244.979 147.152 244.922C147.12 244.87 147.079 244.825 147.029 244.789C146.98 244.753 146.924 244.727 146.864 244.713C146.237 244.545 144.916 245.29 144.865 245.326C144.847 245.333 144.834 245.347 144.825 245.363C144.817 245.38 144.814 245.399 144.818 245.418C144.822 245.435 144.831 245.451 144.844 245.464C144.856 245.477 144.873 245.485 144.89 245.489C145.27 245.555 145.656 245.589 146.042 245.591ZM146.643 244.866C146.699 244.858 146.756 244.858 146.813 244.866C146.849 244.873 146.884 244.887 146.914 244.908C146.944 244.929 146.969 244.957 146.987 244.989C147.054 245.101 147.029 245.157 146.987 245.188C146.813 245.428 145.857 245.433 145.152 245.336C145.614 245.085 146.12 244.925 146.643 244.866Z" fill="#2352A1"/>
<path d="M144.901 245.49H144.937C145.394 245.285 146.299 244.469 146.227 244.05C146.227 243.948 146.14 243.826 145.898 243.8C145.806 243.79 145.714 243.798 145.625 243.825C145.537 243.851 145.455 243.895 145.384 243.953C144.906 244.346 144.803 245.357 144.798 245.398C144.796 245.413 144.798 245.429 144.805 245.443C144.811 245.458 144.821 245.47 144.834 245.479C144.854 245.49 144.878 245.494 144.901 245.49ZM145.826 243.958H145.877C146.037 243.958 146.047 244.035 146.052 244.055C146.093 244.311 145.482 244.949 145.024 245.224C145.074 244.797 145.253 244.394 145.538 244.071C145.622 244.008 145.722 243.973 145.826 243.969V243.958Z" fill="#2352A1"/>
<path d="M117.119 242.882L112.971 241.994C112.898 241.978 112.822 241.987 112.755 242.021C112.688 242.054 112.636 242.11 112.606 242.178L111.167 245.274C111.132 245.349 111.115 245.431 111.116 245.514C111.118 245.597 111.139 245.678 111.177 245.752C111.215 245.826 111.27 245.89 111.336 245.939C111.403 245.989 111.481 246.023 111.563 246.039C113.017 246.329 113.737 246.396 115.562 246.788C116.682 247.028 119.216 247.64 120.763 247.972C122.311 248.303 122.845 246.829 122.244 246.554C119.535 245.325 118.404 244.244 117.669 243.239C117.536 243.057 117.34 242.931 117.119 242.882Z" fill="#2352A1"/>
<path d="M144.5 244.968H140.388C140.313 244.968 140.24 244.993 140.181 245.04C140.122 245.086 140.081 245.15 140.064 245.223L139.319 248.553C139.301 248.633 139.301 248.717 139.321 248.797C139.34 248.877 139.377 248.951 139.429 249.015C139.482 249.079 139.548 249.13 139.623 249.165C139.698 249.2 139.78 249.217 139.863 249.216C141.349 249.216 143.502 249.109 145.368 249.109C147.558 249.109 149.444 249.226 152.009 249.226C153.551 249.226 153.988 247.671 153.34 247.528C150.385 246.89 147.974 246.819 145.42 245.258C145.147 245.078 144.828 244.977 144.5 244.968Z" fill="#2352A1"/>
<path d="M145.857 117.599C148.787 117.298 151.819 116.916 154.754 116.457C157.641 116.051 160.49 115.421 163.276 114.57C163.6 114.463 163.909 114.346 164.217 114.223C164.472 114.122 164.719 114.002 164.957 113.866C165.523 113.55 166.145 113.167 166.751 112.765C167.974 111.954 169.218 111.097 170.447 110.215L177.905 104.896L179.796 106.992C177.699 109.292 175.515 111.474 173.217 113.581C172.066 114.631 170.894 115.671 169.619 116.671C168.987 117.181 168.355 117.691 167.609 118.155C167.2 118.432 166.773 118.681 166.33 118.9C165.929 119.088 165.528 119.267 165.132 119.41C163.599 120.025 162.026 120.536 160.424 120.94C158.882 121.358 157.304 121.689 155.746 121.985C152.628 122.578 149.479 123.004 146.314 123.26L145.857 117.599Z" fill="#FFC3BD"/>
<path d="M129.239 117.527C125.698 118.333 119.756 135.77 119.756 135.77L125.538 137.677C125.538 137.677 131.439 129.007 133.444 124.82C135.52 120.434 132.858 116.701 129.239 117.527Z" fill="#2352A1"/>
<path d="M126.546 136.816C126.546 136.816 120.892 135.745 119.591 134.949C119.139 135.597 118.563 137.958 118.964 138.652C119.365 139.345 124.618 140.355 125.322 139.942C126.027 139.529 126.546 136.816 126.546 136.816Z" fill="#2352A1"/>
<path opacity="0.2" d="M126.546 136.816C126.546 136.816 120.892 135.745 119.591 134.949C119.139 135.597 118.563 137.958 118.964 138.652C119.365 139.345 124.618 140.355 125.322 139.942C126.027 139.529 126.546 136.816 126.546 136.816Z" fill="#FAFAFA"/>
<path d="M150.395 117.717C150.395 117.717 154.41 122.22 150.616 150.101H130.421C130.282 147.041 132.23 132.017 129.239 117.523C131.471 117.096 133.729 116.813 135.998 116.676C138.859 116.513 141.726 116.513 144.587 116.676C146.547 116.873 148.489 117.221 150.395 117.717Z" fill="#2352A1"/>
<path d="M143.23 123.678C146.854 127.385 165.019 119.991 165.019 119.991L162.104 114.427C162.104 114.427 150.745 116.768 146.078 116.676C140.321 116.558 140.491 120.858 143.23 123.678Z" fill="#2352A1"/>
<path d="M161.22 114.32C161.22 114.32 164.114 119.272 164.345 120.756C165.142 120.674 167.301 119.547 167.584 118.803C167.866 118.058 165.183 113.458 164.402 113.193C163.621 112.928 161.22 114.32 161.22 114.32Z" fill="#2352A1"/>
<path opacity="0.2" d="M161.22 114.32C161.22 114.32 164.114 119.272 164.345 120.756C165.142 120.674 167.301 119.547 167.584 118.803C167.866 118.058 165.183 113.458 164.402 113.193C163.621 112.928 161.22 114.32 161.22 114.32Z" fill="#FAFAFA"/>
<path d="M177.787 104.946L180.357 101.942L183.122 105.002C183.122 105.002 181.415 107.843 178.707 107.394L177.787 104.946Z" fill="#FFC3BD"/>
<path d="M183.97 100.525L186.463 101.943L183.147 104.988L180.377 101.943L183.97 100.525Z" fill="#FFC3BD"/>
<path d="M135.268 104.299C136.24 107.894 136.625 110.041 138.866 111.535C142.228 113.784 146.412 111.204 146.54 107.399C146.659 103.972 145.055 98.6734 141.169 97.9492C140.313 97.7826 139.427 97.8365 138.598 98.1057C137.768 98.375 137.022 98.8507 136.43 99.4874C135.838 100.124 135.421 100.901 135.217 101.743C135.014 102.585 135.032 103.465 135.268 104.299Z" fill="#FFC3BD"/>
<path d="M143.2 90.6416C145.77 96.0066 132.431 93.0334 132.339 97.9038C132.339 98.1078 132.339 98.2914 132.339 98.4699C131.958 98.118 131.193 97.7304 129.872 98.2608C130.646 98.551 131.348 99.0053 131.928 99.5918C131.414 100.025 130.632 100.255 130.966 102.33C131.126 103.35 132.149 104.88 133.48 106.237C134.061 107.16 135.947 109.256 135.911 109.761C136.2 109.762 136.485 109.703 136.749 109.588C136.832 109.779 136.869 109.987 136.857 110.194C137.556 110.327 138.106 110.23 138.168 109.751C138.738 109.802 139.149 109.649 139.17 109.195C139.715 109.271 140.09 109.098 140.064 108.517C141.359 107.813 141.802 106.329 142.038 104.671C142.312 102.574 143.371 100.656 145.004 99.296C147.62 97.2204 148.648 93.9463 143.2 90.6416Z" fill="#131314"/>
<path d="M140.47 104.111C140.72 105.004 141.263 105.79 142.012 106.344C142.999 107.069 143.729 106.344 143.662 105.253C143.6 104.233 143.009 102.703 141.925 102.392C140.84 102.081 140.187 103.029 140.47 104.111Z" fill="#FFC3BD"/>
<path d="M143.451 150.1C143.451 150.1 139.164 178.726 136.815 189.436C134.245 201.165 120.46 238.843 120.46 238.843L113.701 237.389C113.701 237.389 124.017 202.134 125.487 190.501C127.08 177.879 130.421 150.08 130.421 150.08L143.451 150.1Z" fill="#2352A1"/>
<path opacity="0.5" d="M143.451 150.1C143.451 150.1 139.164 178.726 136.815 189.436C134.245 201.165 120.46 238.843 120.46 238.843L113.701 237.389C113.701 237.389 124.017 202.134 125.487 190.501C127.08 177.879 130.421 150.08 130.421 150.08L143.451 150.1Z" fill="#131314"/>
<path opacity="0.3" d="M140.742 160.3C135.787 161.264 136.312 179.598 136.908 189.027C138.337 182.362 140.429 169.536 141.858 160.433C141.512 160.264 141.119 160.217 140.742 160.3Z" fill="#131314"/>
<path d="M150.616 150.101C150.616 150.101 151.13 178.114 150.724 189.538C150.298 201.42 146.098 240.332 146.098 240.332H139.719C139.719 240.332 139.483 202.114 139.205 190.445C138.892 177.696 137.345 150.101 137.345 150.101H150.616Z" fill="#2352A1"/>
<path opacity="0.5" d="M150.616 150.101C150.616 150.101 151.13 178.114 150.724 189.538C150.298 201.42 146.098 240.332 146.098 240.332H139.719C139.719 240.332 139.483 202.114 139.205 190.445C138.892 177.696 137.345 150.101 137.345 150.101H150.616Z" fill="#131314"/>
<path opacity="0.2" d="M144.772 235.773C144.764 235.772 144.755 235.77 144.748 235.766C144.74 235.762 144.733 235.756 144.728 235.75C144.723 235.743 144.719 235.735 144.717 235.727C144.715 235.718 144.714 235.71 144.716 235.701C145.841 224.941 148.499 198.891 148.828 189.532C149.172 179.975 148.864 158.587 148.756 152.258C148.756 152.24 148.763 152.223 148.775 152.211C148.788 152.198 148.805 152.191 148.823 152.191C148.839 152.191 148.855 152.198 148.866 152.209C148.878 152.221 148.884 152.236 148.884 152.253C148.992 158.582 149.301 179.975 148.956 189.538C148.622 198.901 145.965 224.951 144.844 235.717C144.844 235.725 144.841 235.734 144.837 235.741C144.833 235.749 144.828 235.755 144.821 235.761C144.814 235.766 144.806 235.77 144.798 235.772C144.789 235.774 144.781 235.774 144.772 235.773Z" fill="#FAFAFA"/>
<path d="M122.079 236.624C122.11 236.624 120.82 239.047 120.82 239.047L113.218 237.415L113.855 235.146L122.079 236.624Z" fill="#2352A1"/>
<path d="M147.342 237.803C147.373 237.803 146.982 240.44 146.982 240.44H139.205L138.995 238.088L147.342 237.803Z" fill="#2352A1"/>
</svg>
