<svg width="42" height="41" viewBox="0 0 42 41" fill="none" xmlns="http://www.w3.org/2000/svg">
<path d="M18.2665 6.79527C19.33 4.44332 22.67 4.44333 23.7335 6.79527L25.9554 11.709C26.4018 12.6962 27.3458 13.366 28.425 13.4614L33.7515 13.9319C36.4147 14.1671 37.4631 17.5055 35.4126 19.2211L31.6082 22.4041C30.7372 23.1328 30.3524 24.2908 30.6139 25.3959L31.7621 30.2478C32.3649 32.795 29.6444 34.8385 27.3659 33.55L22.4767 30.7851C21.5604 30.2669 20.4396 30.2669 19.5233 30.7851L14.6341 33.55C12.3556 34.8385 9.63514 32.795 10.2379 30.2478L11.3861 25.3959C11.6476 24.2908 11.2628 23.1328 10.3918 22.4041L6.58741 19.2211C4.53685 17.5055 5.58529 14.1671 8.2485 13.9319L13.575 13.4614C14.6542 13.366 15.5982 12.6962 16.0446 11.709L18.2665 6.79527Z" fill="#B7B7B7"/>
</svg>
