<svg width="24" height="24" viewBox="0 0 24 24" fill="none" xmlns="http://www.w3.org/2000/svg">
<mask id="mask0_428_3065" style="mask-type:alpha" maskUnits="userSpaceOnUse" x="0" y="0" width="24" height="24">
<rect width="24" height="24" fill="#D9D9D9"/>
</mask>
<g mask="url(#mask0_428_3065)">
<path d="M8 11C8.7 11 9.29167 10.7583 9.775 10.275C10.2583 9.79167 10.5 9.2 10.5 8.5V6H5.5V8.5C5.5 9.2 5.74167 9.79167 6.225 10.275C6.70833 10.7583 7.3 11 8 11ZM5.5 18H10.5V15.5C10.5 14.8 10.2583 14.2083 9.775 13.725C9.29167 13.2417 8.7 13 8 13C7.3 13 6.70833 13.2417 6.225 13.725C5.74167 14.2083 5.5 14.8 5.5 15.5V18ZM2 20V18H3.5V15.5C3.5 14.8 3.65 14.15 3.95 13.55C4.25 12.95 4.66667 12.4333 5.2 12C4.66667 11.5667 4.25 11.05 3.95 10.45C3.65 9.85 3.5 9.2 3.5 8.5V6H2V4H14V6H12.5V8.5C12.5 9.2 12.35 9.85 12.05 10.45C11.75 11.05 11.3333 11.5667 10.8 12C11.3333 12.4333 11.75 12.95 12.05 13.55C12.35 14.15 12.5 14.8 12.5 15.5V18H14V20H2ZM19 20L15.5 16.5L16.925 15.1L18 16.175V4H20V16.2L21.1 15.1L22.5 16.5L19 20Z" fill="#131314"/>
</g>
</svg>
