<svg width="24" height="24" viewBox="0 0 24 24" fill="none" xmlns="http://www.w3.org/2000/svg">
<mask id="mask0_428_3058" style="mask-type:alpha" maskUnits="userSpaceOnUse" x="0" y="0" width="24" height="24">
<rect width="24" height="24" fill="#fff"/>
</mask>
<g mask="url(#mask0_428_3058)">
<path d="M9.75 18V14.5H8.25V10.9C8.25 10.5167 8.5125 10.1875 9.0375 9.9125C9.5625 9.6375 10.2167 9.5 11 9.5C11.7833 9.5 12.4375 9.6375 12.9625 9.9125C13.4875 10.1875 13.75 10.5167 13.75 10.9V14.5H12.25V18H9.75ZM11 9C10.5667 9 10.2083 8.85833 9.925 8.575C9.64167 8.29167 9.5 7.93333 9.5 7.5C9.5 7.06667 9.64167 6.70833 9.925 6.425C10.2083 6.14167 10.5667 6 11 6C11.4333 6 11.7917 6.14167 12.075 6.425C12.3583 6.70833 12.5 7.06667 12.5 7.5C12.5 7.93333 12.3583 8.29167 12.075 8.575C11.7917 8.85833 11.4333 9 11 9ZM11 21C8.5 21 6.375 20.125 4.625 18.375C2.875 16.625 2 14.5 2 12C2 10.75 2.2375 9.57917 2.7125 8.4875C3.1875 7.39583 3.82917 6.44583 4.6375 5.6375C5.44583 4.82917 6.39583 4.1875 7.4875 3.7125C8.57917 3.2375 9.75 3 11 3C12.25 3 13.4208 3.2375 14.5125 3.7125C15.6042 4.1875 16.5542 4.82917 17.3625 5.6375C18.1708 6.44583 18.8125 7.39583 19.2875 8.4875C19.7625 9.57917 20 10.75 20 12V12.2L21.825 10.35L23.25 11.75L19 16L14.75 11.75L16.175 10.35L18 12.175V12C18 10.0667 17.3167 8.41667 15.95 7.05C14.5833 5.68333 12.9333 5 11 5C9.06667 5 7.41667 5.68333 6.05 7.05C4.68333 8.41667 4 10.0667 4 12C4.01667 13.9333 4.70417 15.5833 6.0625 16.95C7.42083 18.3167 9.06667 19 11 19C11.95 19 12.8417 18.8208 13.675 18.4625C14.5083 18.1042 15.2417 17.6167 15.875 17L17.3 18.425C16.4833 19.225 15.5375 19.8542 14.4625 20.3125C13.3875 20.7708 12.2333 21 11 21Z" fill="#131314"/>
</g>
</svg>
