<svg width="40" height="40" viewBox="0 0 40 40" fill="none" xmlns="http://www.w3.org/2000/svg">
<mask id="mask0_1878_3611" style="mask-type:alpha" maskUnits="userSpaceOnUse" x="0" y="0" width="40" height="40">
<rect width="40" height="40" fill="#D9D9D9"/>
</mask>
<g mask="url(#mask0_1878_3611)">
<path d="M9.9987 24.9997H21.6654L24.9987 21.6663H9.9987V24.9997ZM9.9987 18.333H19.9987V14.9997H9.9987V18.333ZM6.66536 11.6663V28.333H18.332L14.9987 31.6663H3.33203V8.33301H36.6654V13.333H33.332V11.6663H6.66536ZM38.1654 20.4997C38.3043 20.6386 38.3737 20.7913 38.3737 20.958C38.3737 21.1247 38.3043 21.2775 38.1654 21.4163L36.6654 22.9163L33.7487 19.9997L35.2487 18.4997C35.3876 18.3608 35.5404 18.2913 35.707 18.2913C35.8737 18.2913 36.0265 18.3608 36.1654 18.4997L38.1654 20.4997ZM21.6654 34.9997V32.083L32.7487 20.9997L35.6654 23.9163L24.582 34.9997H21.6654Z" fill="#DFE3F2"/>
</g>
</svg>
