<svg width="36" height="27" viewBox="0 0 36 27" fill="none" xmlns="http://www.w3.org/2000/svg">
<path d="M6.9987 16.9997H18.6654L21.9987 13.6663H6.9987V16.9997ZM6.9987 10.333H16.9987V6.99967H6.9987V10.333ZM3.66536 3.66634V20.333H15.332L11.9987 23.6663H0.332031V0.333008H33.6654V5.33301H30.332V3.66634H3.66536ZM35.1654 12.4997C35.3043 12.6386 35.3737 12.7913 35.3737 12.958C35.3737 13.1247 35.3043 13.2775 35.1654 13.4163L33.6654 14.9163L30.7487 11.9997L32.2487 10.4997C32.3876 10.3608 32.5404 10.2913 32.707 10.2913C32.8737 10.2913 33.0265 10.3608 33.1654 10.4997L35.1654 12.4997ZM18.6654 26.9997V24.083L29.7487 12.9997L32.6654 15.9163L21.582 26.9997H18.6654Z" fill="#90939C"/>
</svg>
